<svg xmlns="http://www.w3.org/2000/svg" viewBox="0 0 1500 900"><defs><linearGradient id="bg" x1="0" y1="0" x2="1" y2="1"><stop stop-color="#f0f7ff"/><stop offset=".55" stop-color="#fff"/><stop offset="1" stop-color="#f5efff"/></linearGradient><filter id="s"><feDropShadow dx="0" dy="20" stdDeviation="18" flood-opacity=".14"/></filter></defs><rect width="1500" height="900" fill="url(#bg)"/><circle cx="1300" cy="160" r="210" fill="#e2f1ff"/><g filter="url(#s)" transform="translate(820 90) rotate(4)"><rect width="500" height="700" rx="24" fill="#fff" stroke="#d8e5ef" stroke-width="4"/><circle cx="85" cy="105" r="48" fill="#dceeff"/><rect x="155" y="72" width="245" height="24" rx="12" fill="#0b67ad"/><rect x="155" y="110" width="180" height="13" rx="6" fill="#dbe7ef"/><rect x="55" y="205" width="390" height="13" rx="6" fill="#dbe7ef"/><rect x="55" y="235" width="330" height="13" rx="6" fill="#edf2f6"/><rect x="55" y="300" width="390" height="14" rx="7" fill="#dbe7ef"/><rect x="55" y="332" width="360" height="12" rx="6" fill="#edf2f6"/><rect x="55" y="364" width="290" height="12" rx="6" fill="#edf2f6"/><rect x="55" y="435" width="390" height="14" rx="7" fill="#dbe7ef"/><rect x="55" y="470" width="340" height="12" rx="6" fill="#edf2f6"/><rect x="55" y="560" width="150" height="12" rx="6" fill="#0b67ad"/><rect x="225" y="560" width="150" height="12" rx="6" fill="#eee5ff"/></g><text x="110" y="150" font-family="Arial" font-size="34" font-weight="700" fill="#17344b">ATS READY</text><text x="110" y="192" font-family="Arial" font-size="20" fill="#6b7c8d">Clean • Professional • Recruiter friendly</text></svg>
